<svg viewBox="0 0 128 128" xmlns="http://www.w3.org/2000/svg"><path d="m89.234 5.856h-7.384l7.679 8.333v3.967h-15.816v-4.645h7.678l-7.678-8.333v-3.971h15.521zm-18.657 0h-7.384l7.679 8.333v3.967h-15.817v-4.645h7.679l-7.679-8.333v-3.971h15.522zm-18.474.19h-7.968v7.271h7.968v4.839h-13.632v-16.949h13.632z" fill="#131313"/><path d="m27.613 116.706-8.097-90.813h88.967l-8.104 90.798-36.434 10.102z" fill="#1572b6"/><path d="m64.001 119.072 29.439-8.162 6.926-77.591h-36.365z" fill="#33a9dc"/><path d="m64 66.22h14.738l1.019-11.405h-15.757v-11.138h27.929l-.267 2.988-2.737 30.692h-24.925z" fill="#fff"/><path d="m64.067 95.146-.049.014-12.404-3.35-.794-8.883h-11.179l1.561 17.488 22.814 6.333.052-.015v-11.587z" fill="#ebebeb"/><path d="m77.792 76.886-1.342 14.916-12.422 3.353v11.588l22.833-6.328.168-1.882 1.938-21.647z" fill="#fff"/><path d="m64.039 43.677v11.137h-26.903l-.224-2.503-.507-5.646-.267-2.988zm-.039 22.544v11.138h-12.247l-.223-2.503-.508-5.647-.267-2.988z" fill="#ebebeb"/></svg>